<?xml version="1.0" encoding="UTF-8"?>
<svg id="Layer_1" xmlns="http://www.w3.org/2000/svg" version="1.1" viewBox="0 0 98 99">
  <!-- Generator: Adobe Illustrator 30.8.2, SVG Export Plug-In . SVG Version: 2.1.4 Build 7)  -->
  <defs>
    <style>
      .st0 {
        fill: #546e73;
      }
    </style>
  </defs>
  <g id="logo.black_1">
    <path id="Vector" class="st0" d="M91.36,57l-24.9-8.18c-2.32-.76-2.96-3.78-1.14-5.44l19.45-17.69c.69-.62.8-1.68.25-2.43-1.74-2.39-3.71-4.6-5.88-6.6-.68-.63-1.73-.62-2.41,0l-5.2,4.73L14.19,73.56c-.69.62-.8,1.68-.25,2.43,1.74,2.39,3.71,4.6,5.88,6.6.68.63,1.73.62,2.41,0l5.2-4.73,14.25-12.95c1.82-1.65,4.72-.7,5.23,1.72l5.44,25.86c.19.91,1.03,1.54,1.95,1.44,2.97-.32,5.84-.95,8.6-1.84.88-.28,1.4-1.2,1.2-2.11l-5.44-25.87c-.51-2.42,1.76-4.48,4.09-3.72l24.9,8.18c.88.29,1.83-.13,2.21-.99,1.17-2.69,2.09-5.51,2.72-8.45.2-.91-.33-1.82-1.21-2.11h0Z"/>
    <path id="Vector_2" class="st0" d="M29.49,53.2c4.64,0,8.41-3.8,8.41-8.49s-3.76-8.49-8.41-8.49-8.41,3.8-8.41,8.49,3.76,8.49,8.41,8.49Z"/>
    <path id="Vector_3" class="st0" d="M20.24,64.54l4.9-4.33c1.2-1.06.91-3.03-.56-3.66-.16-.07-.33-.15-.5-.24-4.3-2.05-7.28-6.47-7.28-11.6,0-6.5,4.79-11.86,10.99-12.7,5.25-.69,8.78.35,15.29.38,7.47.03,14.79-2.07,20.34-7.11l.39-.35,5.86-5.33,3.73-3.39c1.29-1.18,1.12-3.27-.35-4.22-1.63-1.04-3.33-1.98-5.1-2.81-9.96-4.65-21.93-5.66-34.24-1.32-11.86,4.18-21.25,13.56-25.47,25.51-4.44,12.58-3.45,24.82,1.22,34.99.96,2.1,3.66,2.65,5.36,1.1l5.41-4.92ZM60.72,11.52c1.46,0,2.64,1.2,2.64,2.67s-1.18,2.67-2.64,2.67-2.64-1.2-2.64-2.67,1.18-2.67,2.64-2.67Z"/>
  </g>
</svg>